<?xml version="1.0" ?><!DOCTYPE svg  PUBLIC '-//W3C//DTD SVG 1.1//EN'  'http://www.w3.org/Graphics/SVG/1.1/DTD/svg11.dtd'><svg height="512px" style="enable-background:new 0 0 512 512;" version="1.1" viewBox="0 0 512 512" width="512px" xml:space="preserve" xmlns="http://www.w3.org/2000/svg" xmlns:xlink="http://www.w3.org/1999/xlink"><g id="_x31_03_x2C__fire_x2C__flame_x2C__bonfire_x2C__camping_x2C__camp_x2C_"><g><path d="M340.622,241.385c0-10.666-2.19-21.546-6.857-32.031    c-6.465-14.614-9.911-30.99-13.216-46.754c-3.231-15.44-6.355-30.307-11.993-41.689c-1.185,3.482-2.622,7.072-4.345,10.736    c-3.591,7.685-8.367,15.692-14.005,23.664c-0.467,0.646-1.111,1.221-1.903,1.545c-2.225,0.934-4.812-0.145-5.745-2.371    l-33.25-80.077c-1.078,8.869-2.371,17.595-3.915,26.142c-2.585,14.148-5.926,27.83-10.199,40.793    c-0.323,1.006-1.005,1.867-1.974,2.441c-2.12,1.221-4.813,0.504-6.033-1.615c-3.304-5.674-6.07-11.275-8.188-16.591l-1.76-4.884    c-5.494,10.45-7.756,22.193-10.126,34.51c-2.945,15.189-6.032,31.204-15.295,47.472c-7.11,12.425-10.415,26.034-10.415,39.393    c0,13.86,3.555,27.507,10.234,39.429c6.644,11.885,16.375,22.119,28.763,29.157c11.42,6.536,25.137,10.378,40.758,10.378    c11.634,0,22.443-2.406,32.03-6.643l0.179-0.072c14.293-6.355,26.106-16.842,34.329-29.553    C335.954,272.016,340.622,256.934,340.622,241.385 M271.82,353.816c-2.764-2.766-6.606-4.488-10.808-4.488    c-4.237,0-8.043,1.723-10.809,4.488s-4.489,6.607-4.489,10.809v106.758c0,4.202,1.723,8.008,4.489,10.772    c1.76,1.761,3.95,3.089,6.393,3.844v-97.566c0-2.441,1.974-4.417,4.416-4.417c2.441,0,4.417,1.976,4.417,4.417v97.566    c2.441-0.755,4.633-2.083,6.355-3.844c2.801-2.765,4.524-6.57,4.524-10.772V364.625    C276.31,360.424,274.586,356.582,271.82,353.816z M305.36,349.615c-3.771-1.006-7.865-0.611-11.492,1.436l-0.144,0.072    c-3.626,2.083-6.067,5.494-7.073,9.301c-1.005,3.734-0.646,7.828,1.365,11.42l53.469,92.609c2.118,3.663,5.529,6.104,9.3,7.11    c2.441,0.646,4.99,0.718,7.506,0.143l-48.802-84.53c-1.222-2.082-0.467-4.775,1.616-5.996c2.117-1.186,4.812-0.467,5.998,1.615    l48.799,84.494c1.724-1.831,2.981-4.094,3.627-6.535c1.006-3.698,0.611-7.792-1.4-11.383l-53.469-92.646    C312.578,353.098,309.166,350.656,305.36,349.615z M228.731,351.051c-3.592-2.047-7.721-2.441-11.455-1.436    c-3.808,1.041-7.219,3.482-9.302,7.109l-53.503,92.646c-1.974,3.591-2.371,7.685-1.365,11.383    c0.647,2.441,1.869,4.704,3.627,6.535l48.8-84.494c1.185-2.082,3.878-2.801,5.996-1.615c2.083,1.221,2.802,3.914,1.616,5.996    l-48.799,84.53c2.478,0.575,5.063,0.503,7.468-0.143c3.806-1.006,7.217-3.447,9.3-7.074l53.468-92.646    c2.011-3.592,2.406-7.686,1.4-11.42c-1.005-3.807-3.483-7.218-7.11-9.301L228.731,351.051z M162.264,97.102    c-2.155-2.154-5.136-3.483-8.438-3.483c-3.269,0-6.249,1.329-8.403,3.447c-2.155,2.19-3.483,5.136-3.483,8.438    c0,3.268,1.329,6.248,3.483,8.403c2.155,2.154,5.134,3.483,8.403,3.483c3.303,0,6.284-1.329,8.438-3.483    c2.155-2.155,3.483-5.136,3.483-8.403C165.747,102.201,164.419,99.221,162.264,97.102z M308.412,51.855    c-1.508-1.508-3.591-2.441-5.89-2.441s-4.38,0.934-5.889,2.441c-1.508,1.509-2.441,3.592-2.441,5.889    c0,2.299,0.934,4.381,2.441,5.89c1.509,1.509,3.59,2.442,5.889,2.442s4.382-0.934,5.89-2.442c1.509-1.509,2.442-3.591,2.442-5.89    C310.854,55.447,309.921,53.364,308.412,51.855z M210.057,247.562c0-2.442,1.976-4.417,4.417-4.417    c2.408,0,4.382,1.975,4.382,4.417c0,0.144,0.035,52.14,64.816,39.858c2.369-0.43,4.703,1.15,5.135,3.52    c0.43,2.37-1.149,4.704-3.521,5.135C210.057,310.295,210.057,247.74,210.057,247.562z M210.129,206.697    c0.432-2.407,2.73-3.986,5.1-3.556c2.406,0.431,3.987,2.692,3.555,5.099c0,0.035-3.268,18.637-1.4,20.9    c1.507,1.866,1.256,4.667-0.646,6.211c-1.867,1.545-4.669,1.258-6.213-0.61C206.288,229.535,210.129,206.732,210.129,206.697z     M191.565,30.418c0-2.441,1.976-4.416,4.417-4.416c2.442,0,4.418,1.975,4.418,4.416v21.725c0,2.441-1.976,4.418-4.418,4.418    c-2.441,0-4.417-1.977-4.417-4.418V30.418z M169.804,46.361c0-2.405,1.976-4.416,4.417-4.416c2.443,0,4.417,2.011,4.417,4.416    v21.762c0,2.441-1.974,4.417-4.417,4.417c-2.441,0-4.417-1.976-4.417-4.417V46.361z M264.459,35.158    c0-2.442,1.977-4.418,4.417-4.418c2.442,0,4.417,1.976,4.417,4.418v21.761c0,2.405-1.975,4.417-4.417,4.417    c-2.44,0-4.417-2.012-4.417-4.417V35.158z M227.222,122.311c0.79,2.047,1.688,4.094,2.693,6.176L227.222,122.311z" style="fill-rule:evenodd;clip-rule:evenodd;"/></g></g><g id="Layer_1"/></svg>